<svg width="116" height="68" viewBox="0 0 116 68" fill="none" xmlns="http://www.w3.org/2000/svg">
<path d="M11.1901 59.3V65H0.870117V44.27H11.1901V53.63H11.8501L13.1401 44.27H23.6401L19.9801 54.62L23.6401 65H13.0801L11.8501 59.3H11.1901ZM33.5338 43.97H36.0238C39.6238 43.97 42.2438 44.82 43.8838 46.52C45.5238 48.22 46.3438 50.89 46.3438 54.53C46.3438 58.17 45.5138 60.88 43.8538 62.66C42.2138 64.42 39.6038 65.3 36.0238 65.3H33.5338C29.9538 65.3 27.3338 64.42 25.6738 62.66C24.0138 60.88 23.1838 58.17 23.1838 54.53C23.1838 50.89 24.0038 48.22 25.6438 46.52C27.3038 44.82 29.9338 43.97 33.5338 43.97ZM33.9238 53.84V57.32C33.9238 57.58 33.9938 57.79 34.1338 57.95C34.2938 58.11 34.4938 58.19 34.7338 58.19C34.9938 58.19 35.2038 58.11 35.3638 57.95C35.5438 57.79 35.6338 57.58 35.6338 57.32V53.84C35.6338 53.6 35.5438 53.4 35.3638 53.24C35.2038 53.08 34.9938 53 34.7338 53C34.4938 53 34.2938 53.08 34.1338 53.24C33.9938 53.4 33.9238 53.6 33.9238 53.84ZM47.6572 44.27H56.8372L58.7272 50.45V44.27H67.9672V65H58.7272L57.1372 58.94V65H47.6572V44.27ZM80.0378 59.3V65H69.7178V44.27H80.0378V53.63H80.6978L81.9878 44.27H92.4878L88.8278 54.62L92.4878 65H81.9278L80.6978 59.3H80.0378ZM102.381 43.97H104.871C108.471 43.97 111.091 44.82 112.731 46.52C114.371 48.22 115.191 50.89 115.191 54.53C115.191 58.17 114.361 60.88 112.701 62.66C111.061 64.42 108.451 65.3 104.871 65.3H102.381C98.8014 65.3 96.1814 64.42 94.5214 62.66C92.8614 60.88 92.0314 58.17 92.0314 54.53C92.0314 50.89 92.8514 48.22 94.4914 46.52C96.1514 44.82 98.7814 43.97 102.381 43.97ZM102.771 53.84V57.32C102.771 57.58 102.841 57.79 102.981 57.95C103.141 58.11 103.341 58.19 103.581 58.19C103.841 58.19 104.051 58.11 104.211 57.95C104.391 57.79 104.481 57.58 104.481 57.32V53.84C104.481 53.6 104.391 53.4 104.211 53.24C104.051 53.08 103.841 53 103.581 53C103.341 53 103.141 53.08 102.981 53.24C102.841 53.4 102.771 53.6 102.771 53.84Z" fill="black"/>
<path d="M98.5599 28.28H88.6799L86.4399 10.72H100.72L98.5599 28.28ZM90.9599 29.52H96.1599C97.6266 29.52 98.7466 29.92 99.5199 30.72C100.293 31.4933 100.68 32.5867 100.68 34C100.68 35.3867 100.293 36.4667 99.5199 37.24C98.7466 38.0133 97.6266 38.4 96.1599 38.4H90.9599C89.4666 38.4 88.3332 38.0133 87.5599 37.24C86.8132 36.4667 86.4399 35.3867 86.4399 34C86.4399 32.5867 86.8266 31.4933 87.5999 30.72C88.3732 29.92 89.4932 29.52 90.9599 29.52Z" fill="black"/>
<path d="M1.16016 20V8.35999H25.8002V20H20.9202V36H5.96016V20H1.16016ZM28.1133 36V8.35999H41.8733V36H28.1133ZM44.2071 8.35999H57.9671V25.72H62.0471V36H44.2071V8.35999ZM64.3243 36V8.35999H78.0843V36H64.3243Z" fill="#A393EB"/>
<path d="M1.16016 24V12.36H25.8002V24H20.9202V40H5.96016V24H1.16016ZM28.1133 40V12.36H41.8733V40H28.1133ZM44.2071 12.36H57.9671V29.72H62.0471V40H44.2071V12.36ZM64.3243 40V12.36H78.0843V40H64.3243Z" fill="black"/>
</svg>
