<svg width="223" height="44" viewBox="0 0 223 44" fill="none" xmlns="http://www.w3.org/2000/svg">
<path d="M96.1901 32.3V38H85.8701V17.27H96.1901V26.63H96.8501L98.1401 17.27H108.64L104.98 27.62L108.64 38H98.0801L96.8501 32.3H96.1901ZM118.534 16.97H121.024C124.624 16.97 127.244 17.82 128.884 19.52C130.524 21.22 131.344 23.89 131.344 27.53C131.344 31.17 130.514 33.88 128.854 35.66C127.214 37.42 124.604 38.3 121.024 38.3H118.534C114.954 38.3 112.334 37.42 110.674 35.66C109.014 33.88 108.184 31.17 108.184 27.53C108.184 23.89 109.004 21.22 110.644 19.52C112.304 17.82 114.934 16.97 118.534 16.97ZM118.924 26.84V30.32C118.924 30.58 118.994 30.79 119.134 30.95C119.294 31.11 119.494 31.19 119.734 31.19C119.994 31.19 120.204 31.11 120.364 30.95C120.544 30.79 120.634 30.58 120.634 30.32V26.84C120.634 26.6 120.544 26.4 120.364 26.24C120.204 26.08 119.994 26 119.734 26C119.494 26 119.294 26.08 119.134 26.24C118.994 26.4 118.924 26.6 118.924 26.84ZM132.657 17.27H141.837L143.727 23.45V17.27H152.967V38H143.727L142.137 31.94V38H132.657V17.27ZM165.038 32.3V38H154.718V17.27H165.038V26.63H165.698L166.988 17.27H177.488L173.828 27.62L177.488 38H166.928L165.698 32.3H165.038ZM187.381 16.97H189.871C193.471 16.97 196.091 17.82 197.731 19.52C199.371 21.22 200.191 23.89 200.191 27.53C200.191 31.17 199.361 33.88 197.701 35.66C196.061 37.42 193.451 38.3 189.871 38.3H187.381C183.801 38.3 181.181 37.42 179.521 35.66C177.861 33.88 177.031 31.17 177.031 27.53C177.031 23.89 177.851 21.22 179.491 19.52C181.151 17.82 183.781 16.97 187.381 16.97ZM187.771 26.84V30.32C187.771 30.58 187.841 30.79 187.981 30.95C188.141 31.11 188.341 31.19 188.581 31.19C188.841 31.19 189.051 31.11 189.211 30.95C189.391 30.79 189.481 30.58 189.481 30.32V26.84C189.481 26.6 189.391 26.4 189.211 26.24C189.051 26.08 188.841 26 188.581 26C188.341 26 188.141 26.08 187.981 26.24C187.841 26.4 187.771 26.6 187.771 26.84Z" fill="black"/>
<path d="M218.56 30.28H208.68L206.44 12.72H220.72L218.56 30.28ZM210.96 31.52H216.16C217.627 31.52 218.747 31.92 219.52 32.72C220.293 33.4933 220.68 34.5867 220.68 36C220.68 37.3867 220.293 38.4667 219.52 39.24C218.747 40.0133 217.627 40.4 216.16 40.4H210.96C209.467 40.4 208.333 40.0133 207.56 39.24C206.813 38.4667 206.44 37.3867 206.44 36C206.44 34.5867 206.827 33.4933 207.6 32.72C208.373 31.92 209.493 31.52 210.96 31.52Z" fill="black"/>
<path d="M1.16016 20V8.36H25.8002V20H20.9202V36H5.96016V20H1.16016ZM28.1133 36V8.36H41.8733V36H28.1133ZM44.2071 8.36H57.9671V25.72H62.0471V36H44.2071V8.36ZM64.3243 36V8.36H78.0843V36H64.3243Z" fill="#A393EB"/>
<path d="M1.16016 24V12.36H25.8002V24H20.9202V40H5.96016V24H1.16016ZM28.1133 40V12.36H41.8733V40H28.1133ZM44.2071 12.36H57.9671V29.72H62.0471V40H44.2071V12.36ZM64.3243 40V12.36H78.0843V40H64.3243Z" fill="black"/>
</svg>
